<?xml version="1.0" standalone="no"?>
<!DOCTYPE svg PUBLIC "-//W3C//DTD SVG 20010904//EN"
 "http://www.w3.org/TR/2001/REC-SVG-20010904/DTD/svg10.dtd">
<svg version="1.0" xmlns="http://www.w3.org/2000/svg"
 width="500.000000pt" height="500.000000pt" viewBox="0 0 500.000000 500.000000"
 preserveAspectRatio="xMidYMid meet">

<g transform="translate(0.000000,500.000000) scale(0.100000,-0.100000)"
fill="#000000" stroke="none">
<path d="M2075 4970 c-220 -34 -398 -84 -593 -166 -694 -291 -1224 -909 -1401
-1634 -61 -253 -66 -292 -66 -590 0 -261 1 -282 29 -425 124 -650 470 -1190
1001 -1561 401 -279 874 -426 1375 -426 286 0 508 36 789 128 l134 44 71 -69
c179 -172 395 -261 640 -262 218 -1 395 57 571 188 446 331 493 993 99 1394
l-65 66 44 129 c95 276 131 495 131 789 0 208 -9 299 -49 500 -143 712 -631
1342 -1290 1666 -171 84 -318 139 -478 179 -227 56 -275 61 -557 66 -225 3
-283 0 -385 -16z m670 -155 c320 -49 666 -182 921 -354 359 -242 613 -535 800
-926 147 -308 206 -576 208 -945 1 -209 -7 -298 -45 -490 -20 -100 -84 -317
-98 -332 -3 -4 -33 6 -66 21 -405 193 -891 68 -1160 -298 l-60 -81 -137 0
-138 0 0 104 0 104 48 27 c188 109 345 277 450 482 63 124 100 239 118 373 17
131 20 1022 3 1116 -15 85 -78 209 -138 272 -69 71 -162 129 -248 155 l-73 21
0 172 0 172 -32 27 -32 27 -470 -5 c-394 -3 -483 -7 -543 -21 -353 -82 -635
-334 -749 -670 -51 -148 -54 -192 -54 -725 0 -296 4 -521 10 -557 63 -359 246
-637 548 -827 l62 -39 0 -103 0 -103 -217 -4 c-190 -4 -225 -7 -276 -26 -211
-78 -370 -242 -420 -435 -9 -33 -19 -62 -22 -65 -11 -11 -237 229 -320 340
-88 118 -192 289 -243 398 -83 180 -155 427 -188 640 -25 157 -25 471 -1 630
77 507 291 934 642 1285 377 377 854 601 1395 655 117 12 405 4 525 -15z
m-961 -1590 c434 -135 867 -132 1299 8 l97 31 130 -129 130 -130 0 -170 c-1
-301 -24 -439 -100 -602 -124 -265 -359 -468 -633 -547 -248 -72 -494 -52
-724 59 -274 133 -468 371 -545 670 -18 68 -21 120 -25 339 l-5 259 123 123
c68 68 128 124 132 124 5 0 59 -16 121 -35z m2383 -1516 c307 -42 557 -261
645 -565 19 -65 23 -102 22 -209 0 -134 -6 -170 -51 -289 -69 -185 -245 -360
-431 -430 -117 -44 -153 -50 -287 -50 -107 -1 -144 3 -209 22 -202 58 -371
190 -472 368 -268 474 29 1074 571 1153 86 12 124 12 212 0z m-2029 -189 c113
-28 263 -40 384 -29 93 8 225 34 271 54 15 6 17 -1 17 -84 l0 -91 -83 -55 -84
-56 -110 38 -110 37 -112 -38 -112 -39 -85 58 -84 58 0 90 c0 77 2 88 16 83 8
-3 50 -15 92 -26z m-91 -350 c64 -44 124 -80 133 -80 9 0 63 16 120 35 57 19
114 35 127 35 12 0 66 -16 120 -35 54 -19 105 -35 113 -35 8 0 69 36 135 80
l120 80 131 0 131 0 -18 -67 c-57 -203 -35 -455 55 -643 l34 -71 -27 -10
c-294 -114 -656 -166 -968 -140 -363 30 -706 143 -1023 335 -139 84 -142 89
-135 156 16 131 59 222 146 305 64 61 160 112 236 125 26 4 139 8 251 9 l203
1 116 -80z" />
<path d="M4009 1381 l-29 -29 0 -166 0 -166 -166 0 -166 0 -29 -29 c-16 -16
-29 -37 -29 -46 0 -24 27 -72 45 -79 9 -3 91 -6 181 -6 l164 0 0 -160 c0 -200
11 -230 86 -230 14 0 36 11 49 25 25 24 25 27 25 195 l0 170 170 0 c168 0 171
0 195 25 14 13 25 35 25 49 0 75 -30 86 -230 86 l-160 0 0 164 c0 90 -3 172
-6 181 -7 18 -55 45 -79 45 -9 0 -30 -13 -46 -29z"/>
<path d="M2377 920 c-38 -30 -38 -90 -1 -119 35 -28 69 -26 99 4 69 68 -22
174 -98 115z" />
<path d="M2394 615 c-34 -14 -44 -32 -44 -75 0 -33 40 -70 75 -70 37 0 75 37
75 73 -1 61 -52 95 -106 72z" />
</g>
</svg>
